<svg width="139" height="139" viewBox="0 0 139 139" fill="none" xmlns="http://www.w3.org/2000/svg">
<rect x="69.5377" width="96.2796" height="99.0002" rx="18" transform="rotate(44.6198 69.5377 0)" fill="#182843"/>
<rect x="69.5377" width="96.2796" height="99.0002" rx="18" transform="rotate(44.6198 69.5377 0)" fill="#182843"/>
<circle cx="52.5" cy="52.5" r="7.5" fill="#3A4A64"/>
<path d="M53.1193 49.1818V55H51.7159V50.4943H51.6818L50.3807 51.2898V50.0739L51.8153 49.1818H53.1193Z" fill="black"/>
<rect x="53" y="48" width="30" height="9" rx="4" fill="#3A4A64"/>
<circle cx="52.5" cy="69.5" r="7.5" fill="#3A4A64"/>
<path d="M50.429 72V70.9886L52.5511 69.1307C52.7102 68.9867 52.8456 68.8551 52.9574 68.7358C53.0691 68.6146 53.1544 68.4934 53.2131 68.3722C53.2718 68.2491 53.3011 68.1155 53.3011 67.9716C53.3011 67.8106 53.2661 67.6733 53.196 67.5597C53.1259 67.4441 53.0294 67.3551 52.9062 67.2926C52.7831 67.2301 52.642 67.1989 52.483 67.1989C52.322 67.1989 52.1809 67.232 52.0597 67.2983C51.9384 67.3627 51.8438 67.4564 51.7756 67.5795C51.7093 67.7027 51.6761 67.8523 51.6761 68.0284H50.3438C50.3438 67.6326 50.4328 67.2907 50.6108 67.0028C50.7888 66.715 51.0388 66.4934 51.3608 66.3381C51.6847 66.1809 52.0606 66.1023 52.4886 66.1023C52.9299 66.1023 53.3134 66.1761 53.6392 66.3239C53.965 66.4716 54.2169 66.678 54.3949 66.9432C54.5748 67.2064 54.6648 67.5123 54.6648 67.8608C54.6648 68.0824 54.6203 68.3021 54.5312 68.5199C54.4422 68.7377 54.2822 68.9782 54.0511 69.2415C53.822 69.5047 53.4962 69.8201 53.0739 70.1875L52.3778 70.8295V70.8665H54.7358V72H50.429Z" fill="black"/>
<rect x="55" y="65" width="34" height="9" rx="4" fill="#3A4A64"/>
<circle cx="52.5" cy="86.5" r="7.5" fill="#CBBED7"/>
<path d="M52.642 89.0795C52.1989 89.0795 51.8059 89.0038 51.4631 88.8523C51.1222 88.6989 50.8532 88.4877 50.6562 88.2188C50.4593 87.9498 50.3589 87.6402 50.3551 87.2898H51.7699C51.7756 87.4167 51.8163 87.5294 51.892 87.6278C51.9678 87.7244 52.071 87.8002 52.2017 87.8551C52.3324 87.91 52.4811 87.9375 52.6477 87.9375C52.8144 87.9375 52.9612 87.9081 53.0881 87.8494C53.2169 87.7888 53.3172 87.7064 53.3892 87.6023C53.4612 87.4962 53.4962 87.375 53.4943 87.2386C53.4962 87.1023 53.4574 86.9811 53.3778 86.875C53.2983 86.7689 53.1856 86.6866 53.0398 86.6278C52.8958 86.5691 52.7254 86.5398 52.5284 86.5398H51.9631V85.5398H52.5284C52.7008 85.5398 52.8523 85.5114 52.983 85.4545C53.1155 85.3977 53.2188 85.3182 53.2926 85.2159C53.3665 85.1117 53.4025 84.9924 53.4006 84.858C53.4025 84.7273 53.3712 84.6127 53.3068 84.5142C53.2443 84.4138 53.1563 84.3362 53.0426 84.2812C52.9309 84.2263 52.8011 84.1989 52.6534 84.1989C52.4981 84.1989 52.357 84.2263 52.2301 84.2812C52.1051 84.3362 52.0057 84.4138 51.9318 84.5142C51.858 84.6146 51.8191 84.7311 51.8153 84.8636H50.4716C50.4754 84.517 50.572 84.2121 50.7614 83.9489C50.9508 83.6837 51.2083 83.4763 51.5341 83.3267C51.8617 83.1771 52.2348 83.1023 52.6534 83.1023C53.0701 83.1023 53.4366 83.1752 53.7528 83.321C54.0691 83.4669 54.3153 83.6657 54.4915 83.9176C54.6676 84.1676 54.7557 84.4508 54.7557 84.767C54.7576 85.0947 54.6506 85.3646 54.4347 85.5767C54.2206 85.7888 53.9451 85.9195 53.608 85.9688V86.0142C54.0587 86.0672 54.3987 86.2131 54.6278 86.4517C54.8589 86.6903 54.9735 86.9886 54.9716 87.3466C54.9716 87.6837 54.8722 87.983 54.6733 88.2443C54.4763 88.5038 54.2017 88.7083 53.8494 88.858C53.4991 89.0057 53.0966 89.0795 52.642 89.0795Z" fill="black"/>
<rect x="55" y="82" width="38" height="9" rx="4" fill="#CBBED7"/>
</svg>
