<svg width="139" height="139" viewBox="0 0 139 139" fill="none" xmlns="http://www.w3.org/2000/svg">
<rect x="69.5377" width="96.2796" height="99.0002" rx="18" transform="rotate(44.6198 69.5377 0)" fill="#182843"/>
<rect x="69.5377" width="96.2796" height="99.0002" rx="18" transform="rotate(44.6198 69.5377 0)" fill="#182843"/>
<rect x="43" y="43" width="52" height="52" rx="10" fill="#C7E9A7"/>
<rect width="6.60125" height="2.98126" rx="0.5" transform="matrix(0.676564 0.736384 -0.716639 0.697445 55.1365 59.0597)" fill="black"/>
<path d="M56.8444 63.116C56.6544 62.9157 56.6583 62.5946 56.8531 62.3989L62.8695 56.3543C63.0643 56.1586 63.3763 56.1624 63.5663 56.3627L64.9321 57.8027C65.1221 58.0031 65.1182 58.3242 64.9234 58.5199L58.907 64.5644C58.7122 64.7602 58.4002 64.7564 58.2102 64.556L56.8444 63.116Z" fill="black"/>
<path d="M67.8293 61.0164C67.8293 60.4641 68.277 60.0164 68.8293 60.0164H84C84.5523 60.0164 85 60.4641 85 61.0164V62.2296C85 62.7818 84.5523 63.2295 84 63.2295H68.8293C68.277 63.2295 67.8293 62.7818 67.8293 62.2295V61.0164Z" fill="black"/>
<rect width="6.60125" height="2.98126" rx="0.5" transform="matrix(0.676564 0.736384 -0.716639 0.697445 55.1365 75.0597)" fill="black"/>
<path d="M56.8444 79.116C56.6544 78.9157 56.6583 78.5946 56.8531 78.3989L62.8695 72.3543C63.0643 72.1586 63.3763 72.1624 63.5663 72.3627L64.9321 73.8027C65.1221 74.0031 65.1182 74.3242 64.9234 74.5199L58.907 80.5644C58.7122 80.7602 58.4002 80.7564 58.2102 80.556L56.8444 79.116Z" fill="black"/>
<path d="M67.8293 77.0164C67.8293 76.4641 68.277 76.0164 68.8293 76.0164H84C84.5523 76.0164 85 76.4641 85 77.0164V78.2296C85 78.7818 84.5523 79.2295 84 79.2295H68.8293C68.277 79.2295 67.8293 78.7818 67.8293 78.2295V77.0164Z" fill="black"/>
</svg>
